<svg width="783" height="93" viewBox="0 0 783 93" fill="none" xmlns="http://www.w3.org/2000/svg">
<path d="M432.508 31.1711C432.508 14.4842 446.036 0.956787 462.723 0.956787H752.213C768.9 0.956787 782.427 14.4842 782.427 31.1711C782.427 47.858 768.9 61.3854 752.213 61.3854H462.723C446.036 61.3854 432.508 47.858 432.508 31.1711Z" fill="#99E2D0"/>
<path d="M380.476 61.5996C380.476 44.9128 394.003 31.3854 410.69 31.3854H700.18C716.867 31.3854 730.395 44.9128 730.395 61.5996C730.395 78.2865 716.867 91.8139 700.18 91.8139H410.69C394.003 91.8139 380.476 78.2865 380.476 61.5996Z" fill="#99E2D0"/>
<path d="M349.919 62.6429C349.919 79.3298 336.391 92.8572 319.704 92.8572L30.2142 92.8572C13.5273 92.8572 -6.22178e-05 79.3298 -6.36766e-05 62.6429C-6.51354e-05 45.956 13.5273 32.4286 30.2142 32.4286L319.704 32.4286C336.391 32.4286 349.919 45.956 349.919 62.6429Z" fill="#99E2D0"/>
<path d="M401.951 32.2143C401.951 48.9012 388.424 62.4286 371.737 62.4286L82.2467 62.4286C65.5598 62.4286 52.0325 48.9012 52.0325 32.2144C52.0325 15.5275 65.5599 2.00007 82.2468 2.00007L371.737 2.00004C388.424 2.00004 401.951 15.5274 401.951 32.2143Z" fill="#99E2D0"/>
<path d="M315.002 31.1711C315.002 14.4842 328.529 0.956787 345.216 0.956787H634.706C651.393 0.956787 664.92 14.4842 664.92 31.1711C664.92 47.858 651.393 61.3854 634.706 61.3854H345.216C328.529 61.3854 315.002 47.858 315.002 31.1711Z" fill="#FF79DA"/>
<path d="M353.159 61.5996C353.159 44.9128 366.686 31.3854 383.373 31.3854H672.863C689.55 31.3854 703.077 44.9128 703.077 61.5996C703.077 78.2865 689.55 91.8139 672.863 91.8139H383.373C366.686 91.8139 353.159 78.2865 353.159 61.5996Z" fill="#FF79DA"/>
<path d="M467.425 62.6429C467.425 79.3298 453.898 92.8572 437.211 92.8572L147.721 92.8572C131.034 92.8572 117.507 79.3298 117.507 62.6429C117.507 45.956 131.034 32.4286 147.721 32.4286L437.211 32.4286C453.898 32.4286 467.425 45.956 467.425 62.6429Z" fill="#FF79DA"/>
<path d="M429.268 32.2143C429.268 48.9012 415.741 62.4286 399.054 62.4286L109.564 62.4286C92.8768 62.4286 79.3494 48.9012 79.3494 32.2144C79.3494 15.5275 92.8768 2.00007 109.564 2.00007L399.054 2.00004C415.741 2.00004 429.268 15.5274 429.268 32.2143Z" fill="#FF79DA"/>
<path d="M291.366 31.4588C291.366 14.613 305.022 0.956787 321.868 0.956787H614.115C630.961 0.956787 644.617 14.613 644.617 31.4588C644.617 48.3046 630.961 61.9609 614.115 61.9609H321.868C305.022 61.9609 291.366 48.3046 291.366 31.4588Z" fill="#9356DC"/>
<path d="M260.725 61.3119C260.725 44.4661 274.381 30.8098 291.227 30.8098H583.474C600.32 30.8098 613.976 44.4661 613.976 61.3119C613.976 78.1577 600.32 91.8139 583.474 91.8139H291.227C274.381 91.8139 260.725 78.1577 260.725 61.3119Z" fill="#9356DC"/>
<path d="M491.061 62.3551C491.061 79.2009 477.405 92.8572 460.559 92.8572L168.312 92.8572C151.466 92.8572 137.81 79.201 137.81 62.3552C137.81 45.5094 151.466 31.8531 168.312 31.8531L460.559 31.8531C477.405 31.8531 491.061 45.5093 491.061 62.3551Z" fill="#9356DC"/>
<path d="M521.702 32.5021C521.702 49.3479 508.046 63.0041 491.2 63.0041L198.953 63.0041C182.107 63.0041 168.451 49.3479 168.451 32.5021C168.451 15.6563 182.107 2.00007 198.953 2.00007L491.2 2.00004C508.046 2.00004 521.702 15.6563 521.702 32.5021Z" fill="#9356DC"/>
<path d="M203.999 30.8529C203.999 13.8133 217.812 0 234.852 0H530.461C547.5 0 561.314 13.8133 561.314 30.8529C561.314 47.8925 547.5 61.7058 530.461 61.7058H234.852C217.812 61.7058 203.999 47.8925 203.999 30.8529Z" fill="black"/>
<path d="M239.964 62.065C239.964 45.0254 253.777 31.2121 270.817 31.2121H566.425C583.465 31.2121 597.278 45.0254 597.278 62.065C597.278 79.1046 583.465 92.9179 566.425 92.9179H270.817C253.777 92.9179 239.964 79.1046 239.964 62.065Z" fill="black"/>
</svg>
